# xmcd
#
# Track frame offsets: 
#        150
#        17950
#        32390
#        51135
#        57315
#        93667
#        112210
#        150510
#
# Disc length: 2385 seconds
#
# Revision: 2
# Processed by: cddbd v1.5.2PL0 Copyright (c) Steve Scherf et al.
# Submitted via: ExactAudioCopy v0.90b4
#
DISCID=63094f08
DTITLE=Museo Rosenbach - Zarathustra
DYEAR=1973
DGENRE=Progressive Rock
TTITLE0=Zarathustra - A) L'Ultimo Uomo
TTITLE1=Zarathustra - B) Il Re Di Ieri
TTITLE2=Zarathustra - C) Al Di La Del Bene E Del Male
TTITLE3=Zarathustra - D) Superuomo
TTITLE4=Zarathustra - E) Il Tempio Delle Clessidre
TTITLE5=Degli Uomini
TTITLE6=Della Natura
TTITLE7=Dell'Eterno Ritorno
EXTD=
EXTT0=
EXTT1=
EXTT2=
EXTT3=
EXTT4=
EXTT5=
EXTT6=
EXTT7=
PLAYORDER=
